    <svg xmlns="http://www.w3.org/2000/svg" xmlns:xlink="http://www.w3.org/1999/xlink" viewBox="0 0 113 280">
      <g class="izq">
        <g class="motor" transform="matrix(-1.98 0 0 1.99 238 22)">
          <path fill="#292929" d="M92 50.5h4v2h-4z"/>
          <rect width="8" height="21" x="96" y="41" rx="2" ry="2" fill="#292929"/>
          <circle r="2" cy="45" cx="100"/>
          <circle cx="100" cy="51" r="2"/>
          <circle r="2" cy="57" cx="100"/>
        </g>
        <path class="w" d="M32 63a30 83 0 0 0-8 58 30 83 0 0 0 14 71c2-2 11-12 6-22-6-11-10-27-11-46 0-20 8-43 8-43z" fill="#fff"/>
      </g>
        <path d="M61 170h-9l1 58s0 18 2 21l2 3 2-3c2-3 2-10 2-22v-57z" fill="#18191c"/>

        <path d="M24 192c28 28 24-26 24-26" fill="none" stroke="#252525" stroke-width="2"/>

        <path d="M35 189s1-4-2-4-9 2-11 6l-6 9 6 6s1-10 13-17z" fill="#757875"/>
        <path class="w" d="M16 200l8-10c3-3 7-5 9-5h-9s-4 0-10 5-9 13-9 13z" fill="#fff"/>
        <path d="M5 203l3 5h13l1-2-6-6z" fill="#c5c4c9"/>

        <path class="antenna" d="M44 54V30l7-8V0M51 50V30"/>

        <path class="w" d="M55 39a30 83 0 0 0-21 24l10 18s-9 23-9 43a107 107 0 0 0 11 47 26 74 0 0 0 10 6v-43a12 12 0 0 1-1 0 12 12 0 0 1-12-12 12 12 0 0 1 12-12 12 12 0 0 1 1 0V39a30 83 0 0 0-1 0z" fill="#fff"/>

        <path d="M0 277l9-73 2-1 5 1 2 1-11 58s-2 9-5 14-2 0-2 0z" fill="#18191c"/>

        <g class="der">
          <g class="motor" transform="matrix(1.97 0 0 1.98 -124 22)">
            <path fill="#292929" d="M92 50.2h4v2h-4z"/>
            <rect ry="2" rx="2" y="41" x="96" height="21" width="8" fill="#292929"/>
            <circle cx="100" cy="45" r="2"/>
            <circle r="2" cy="51" cx="100"/>
            <circle cx="100" cy="57" r="2"/>
          </g>
          <path class="w" d="M81 63a30 83 0 0 1 9 58 30 83 0 0 1-15 71c-2-2-11-12-5-22 5-11 10-27 10-46 0-20-8-43-8-43z" fill="#fff"/>
        </g>

        <path d="M89 192c-28 28-24-26-24-26" fill="none" stroke="#252525" stroke-width="2"/>

        <path d="M78 189s-1-4 2-4 9 2 11 6l6 9-5 6s-1-10-14-17z" fill="#757875"/>
        <path class="w" d="M58 39a30 83 0 0 1 21 24l-9 18s8 23 8 43a107 107 0 0 1-11 47 26 74 0 0 1-10 6v-43a12 12 0 0 0 1 0 12 12 0 0 0 12-12 12 12 0 0 0-12-12 12 12 0 0 0-1 0V39a30 83 0 0 1 1 0z" fill="#fff"/>
        <path class="w" d="M97 200l-8-10c-3-3-7-5-9-5h9s4 0 10 5 9 13 9 13z" fill="#fff"/>
        <path d="M108 203l-3 5H93l-1-2 5-6z" fill="#c5c4c9"/>
        <path d="M113 277l-9-73-2-1-4 1-2 1c-1 1 11 58 11 58l4 14c3 5 2 0 2 0z" fill="#18191c"/>

        <g class="eye" transform="matrix(2.31 0 0 2.31 -368 11)">
            <ellipse class="w" ry="6" rx="6" cx="183.9" cy="48" fill="#c8c8c8"/>
            <ellipse ry="4" rx="4" cy="48" cx="184" fill="#010202"/>
            <path d="m 181.698,51.68533 1.6281,-2.87062 -2.3076,2.35925 2.1894,-2.46937 -2.7477,1.82791 2.6549,-1.96021 -3.0677,1.21668 3.0045,-1.36538 -3.2537,0.55227 3.2228,-0.71086 -3.2974,-0.13627 3.3001,-0.0253 -3.197,-0.81886 3.2332,0.6614 -2.9568,-1.46566 3.025,1.31918 -2.5875,-2.04841 2.6847,1.9193 -2.1051,-2.54162 2.227,2.43554 -1.5307,-2.92376 1.6719,2.84534 -0.8893,-3.17812 1.0438,3.13078 -0.2091,-3.29358 0.3701,3.27939 0.4802,-3.26508 -0.3198,3.28467 1.1485,-3.09389 -0.9957,3.1464 1.7667,-2.78749 -1.6282,2.87062 2.3077,-2.35925 -2.1894,2.46938 2.7477,-1.82792 -2.655,1.96022 3.0678,-1.21668 -3.0045,1.36537 3.2536,-0.55227 -3.2227,0.71086 3.2974,0.13627 -3.3001,0.0253 3.197,0.81886 -3.2333,-0.6614 2.9569,1.46566 -3.0251,-1.31918 2.5876,2.04841 -2.6847,-1.9193 2.1051,2.54162 -2.227,-2.43554 1.5307,2.92376 -1.672,-2.84533 0.8894,3.17811 -1.0439,-3.13078 0.2092,3.29358 -0.3701,-3.27939 -0.4802,3.26508 0.3198,-3.28467 -1.1485,3.0939 0.9957,-3.14641 z" fill="#e80202" stroke="#3a0000" stroke-width="1" paint-order="stroke markers fill"/>
            <circle class="pupile" r="1.4" cx="183.9" cy="48" fill="#380202" stroke="red" stroke-width=".5" stroke-linecap="square" stroke-miterlimit="5" />
        </g>
      <g class="crown" transform="translate(-11.5 -11)">
          <path d="M89.2 68.4l-.4-7.2 2.7-15.4s-2.7 10-6.4 9.5c-4.3-.7-3.8-12.5-3.8-12.5s-.5 12.1-5 12.5c-5 .4-8-13.2-8-13.2s-2.9 13.6-8 13.2c-4.5-.4-5-12.5-5-12.5s.6 11.8-3.7 12.5c-3.8.6-6.5-9.5-6.5-9.5l2.7 15.4-.4 7.2z" fill="#e0be02"/>
          <circle r="1.5" cy="42.6" cx="68.4"/>
          <circle cx="55.3" cy="44.2" r="1.3"/>
          <circle r="1.3" cy="43.6" cx="81.3"/>
          <circle cx="91.5" cy="46.4" r="1.1"/>
          <circle r="1.1" cy="46.4" cx="45.2"/>
          <circle r="2" cy="53.3" cx="68.2" fill="#a21c02" stroke="#eee722" stroke-width=".6" stroke-linecap="square" />
          <circle cx="60.4" cy="64.8" r="2" fill="#a21c02" stroke="#eee722" stroke-width=".6" stroke-linecap="square" />
          <circle r="1.2" cy="64.7" cx="68" fill="#008402" stroke="#eee722" stroke-width=".6" stroke-linecap="square" />
          <path d="M48.1 67.5l.4-6.2 39.3-.3v1.3H59.4z" fill="#d2ac02"/>
          <circle r="2" cy="64.8" cx="76.2" fill="#a21c02" stroke="#eee722" stroke-width=".6" stroke-linecap="square" />
          <circle cx="83.8" cy="64.7" r="1.2" fill="#008402" stroke="#eee722" stroke-width=".6" stroke-linecap="square" />
          <circle cx="53.2" cy="64.7" r="1.2" fill="#008402" stroke="#eee722" stroke-width=".6" stroke-linecap="square" />
      </g>
    </svg>
